# xmcd
#
# Track frame offsets: 
#        182
#        10720
#        20555
#        31965
#        42760
#        62210
#        76100
#        85352
#        99932
#        120345
#        123450
#        133342
#        143192
#        149957
#        152452
#        161185
#        163265
#        174852
#        188447
#        220467
#        225295
#        235527
#        240457
#        248645
#        253192
#        255240
#        271932
#        294387
#        296252
#        297942
#
# Disc length: 4088 seconds
#
# Revision: 4
# Processed by: cddbd v1.4PL0 Copyright (c) Steve Scherf et al.
# Submitted via: ExactAudioCopy v0.90b4
#
DISCID=9a0ff61e
DTITLE=Pinkard and Bowden - Cousins, Cattle and Other Love Stories
DYEAR=1992
DGENRE=Comedy
TTITLE0=Censor Us
TTITLE1=Sexual Harrasser
TTITLE2=Trailer Park Woman
TTITLE3=Propane (Parody To Cocaine)
TTITLE4=Buffalo Bob Or Buffalo Bill
TTITLE5=Blue Collar Blues
TTITLE6=Since My Baby Turned Gay
TTITLE7=Harvard, A.K.A. Coon-Aspirations or Higher Edu-Cajun
TTITLE8=Disclaimer-Intro-Announcement-Yeeha [Live]
TTITLE9=Censor Us: Set Up [Live]
TTITLE10=Censor Us: Song
TTITLE11=Thanks and Good Evening [Live]
TTITLE12=C.L.I.T. (Cajuns Living in Tennesse) [Live]
TTITLE13=Sexual Harrasser: Set Up [Live]
TTITLE14=Sexual Harrasser: Song [Live]
TTITLE15=Trailer Park Woman: Set Up [Live]
TTITLE16=Trailer Park Woman: Song [Live]
TTITLE17=Longasing Song [Live]
TTITLE18=Comedy Zone and Personal Intros [Live]
TTITLE19=Propane: Set Up [Live]
TTITLE20=Propane: Song [Live]
TTITLE21=Freeloadin': Set Up [Live]
TTITLE22=Freeloadin': Song (Parody To "Free Fallin")
TTITLE23=It's Redundant [sort of a Parody to "Help Me Rhonda" by the B
TTITLE23=each Boys]
TTITLE24=Buffalo Bob or Buffalo Bill: Set Up [Live]
TTITLE25=Buffalo Bob or Buffalo Bill: Song [Live]
TTITLE26=Blue Collar Blues/Goodnight [Live]
TTITLE27=Encore: Thanks and Appreciation [Live]
TTITLE28=Since My Baby Turned Gay: Set Up [Live]
TTITLE29=Since My Baby Turned Gay: Song [Live]
EXTD=AMG REVIEW: Unlike the homespun country comedy of a bygone era, t
EXTD=he music of Pinkard and Bowden is proudly and defiantly raunchy - 
EXTD=the opening cut even taunts their label to "Censor Us." (The albu
EXTD=m does indeed bear a parental advisory sticker, by the way.) Also
EXTD=featured: "Trailer Park Woman" and "Since My Baby Turned Gay." -
EXTD=Jason Ankeny, All-Music Guide
EXTT0=
EXTT1=
EXTT2=
EXTT3=
EXTT4=
EXTT5=
EXTT6=
EXTT7=
EXTT8=
EXTT9=
EXTT10=
EXTT11=
EXTT12=
EXTT13=
EXTT14=
EXTT15=
EXTT16=
EXTT17=
EXTT18=
EXTT19=
EXTT20=
EXTT21=
EXTT22=
EXTT23=
EXTT24=
EXTT25=
EXTT26=
EXTT27=
EXTT28=
EXTT29=
PLAYORDER=
